<?xml version="1.0" encoding="iso-8859-1"?>
<!-- Generator: Adobe Illustrator 16.0.0, SVG Export Plug-In . SVG Version: 6.00 Build 0)  -->
<!DOCTYPE svg PUBLIC "-//W3C//DTD SVG 1.1//EN" "http://www.w3.org/Graphics/SVG/1.1/DTD/svg11.dtd">
<svg version="1.1" id="Capa_1" xmlns="http://www.w3.org/2000/svg" xmlns:xlink="http://www.w3.org/1999/xlink" x="0px" y="0px"
	 width="612.006px" height="612.006px" viewBox="0 0 612.006 612.006" style="enable-background:new 0 0 612.006 612.006;"
	 xml:space="preserve">
<g>
	<g>
		<g>
			<path d="M597.507,179.033c-8.007,0-14.494-6.487-14.494-14.493v-45.382c0-2.255-1.9-4.163-4.155-4.163H221.908
				c-14.227,0-32.274-7.838-41.973-18.245L169.14,85.19c-4.261-4.551-14.546-9.026-20.784-9.026H33.144
				c-2.255,0-4.157,1.901-4.157,4.156v84.22c0,8.006-6.487,14.493-14.494,14.493C6.486,179.033,0,172.546,0,164.54V80.32
				c0-18.279,14.865-33.143,33.144-33.143h115.212c14.227,0,32.274,7.838,41.973,18.244l10.795,11.561
				c4.25,4.557,14.546,9.032,20.784,9.032h356.948c18.272,0,33.144,14.87,33.144,33.149v45.383
				C612,172.546,605.513,179.033,597.507,179.033z"/>
			<path d="M578.862,564.829H33.144C14.865,564.829,0,549.965,0,531.686V251.571c0-18.273,14.865-33.15,33.144-33.15h545.718
				c18.272,0,33.144,14.871,33.144,33.15v280.115C612,549.965,597.136,564.829,578.862,564.829z M33.144,247.408
				c-2.255,0-4.157,1.907-4.157,4.163v280.115c0,2.255,1.901,4.156,4.157,4.156h545.718c2.255,0,4.155-1.901,4.155-4.156V251.571
				c0-2.255-1.9-4.163-4.155-4.163H33.144L33.144,247.408z"/>
		</g>
	</g>
</g>
<g>
</g>
<g>
</g>
<g>
</g>
<g>
</g>
<g>
</g>
<g>
</g>
<g>
</g>
<g>
</g>
<g>
</g>
<g>
</g>
<g>
</g>
<g>
</g>
<g>
</g>
<g>
</g>
<g>
</g>
</svg>
